<svg width="1080" height="273" viewBox="0 0 1080 273" fill="none" xmlns="http://www.w3.org/2000/svg">
<path d="M204 237.6H103.6C102.4 237.6 101.4 236.9 100.8 236L86.6 211.4L43.9 137.6C43.6 137.1 43.5 136.5 43.5 135.9C43.5 135.3 43.7 134.7 43.9 134.2L86.6 60.4L100.8 35.8C101.4 34.8 102.4 34.2 103.6 34.2H204C205.2 34.2 206.3 34.9 206.8 35.8L252.9 116.1C254.2 118.3 252.6 121 250.1 121H170.4C169.4 121 168.4 120.5 167.7 119.6L144.5 86.7C143.1 84.7 140.2 84.8 139 87L113.6 130.3L113.4 130.7L111.2 134.4C110.9 134.8 110.8 135.3 110.8 135.8C110.8 136.3 111 136.8 111.2 137.2L113.4 140.9L113.6 141.3L139 184.6C140.2 186.6 143.2 186.8 144.5 184.9L167.7 152C168.3 151.2 169.3 150.6 170.4 150.6H250.1C252.6 150.6 254.2 153.4 252.9 155.5L206.8 235.9C206.2 236.9 205.1 237.5 204 237.5V237.3V237.6Z" fill="black"/>
<path d="M403.7 158.5L420.9 183C422.7 185.5 421.5 187.3 418.6 187.3H403.6C401.7 187.3 400.3 186.6 399.3 185L383.5 160.5H347.8V183.7C347.8 186 346.5 187.4 344.1 187.4H331.2C328.9 187.4 327.5 186.1 327.5 183.7V88.6C327.5 86.3 328.8 84.9 331.2 84.9H383.8C413.5 84.9 424.8 97.3 424.8 121.8V123.9C424.8 141.6 419.2 153.6 403.6 158.2V158.4L403.7 158.5ZM404.5 122.1C404.5 107.1 398 104.3 382.2 104.3H347.7V141.3H382.2C397.8 141.3 404.5 138.7 404.5 124V122.1Z" fill="black"/>
<path d="M449 155.1V137.6C449 117.5 455.6 105.9 479 105.9H503C526.3 105.9 533 117.5 533 137.6V155.1C533 175.8 526.4 187.3 503 187.3H479C455.7 187.3 449 175.8 449 155.1ZM502.5 169.5C511.3 169.5 513.8 167.2 513.8 157.3V136C513.8 126.1 511.3 123.8 502.5 123.8H479.3C470.5 123.8 468 126.1 468 136V157.3C468 167.2 470.6 169.5 479.3 169.5H502.5Z" fill="black"/>
<path d="M635.3 187.3H619.4C617.5 187.3 616.1 186.7 614.9 185.2L594.1 158.9L573.3 185.2C572.1 186.8 570.7 187.3 568.8 187.3H552.9C549.9 187.3 548.8 185.3 550.9 182.8L582.5 145.2L553.3 110.3C551.3 108 552.3 105.8 555.3 105.8H571.4C573.3 105.8 574.7 106.4 575.9 107.9L594.3 131.4L612.7 107.9C613.9 106.3 615.3 105.8 617.2 105.8H633.1C636.1 105.8 637.2 107.9 635.2 110.3L606.1 145.2L637.5 182.8C639.5 185.1 638.5 187.3 635.5 187.3H635.3Z" fill="black"/>
<path d="M659.7 155.6C659.6 153.2 660.8 151.9 663.2 151.9H676C678.3 151.9 679.4 153.2 679.6 155.5C680.5 163.8 684.3 167 693.7 167H721.9C732.8 167 736.7 164.3 736.7 155.9C736.7 147.5 733 145.7 723.3 145L691.2 142.6C669.1 140.9 660.3 133.7 660.3 114.7C660.3 95.7 669.6 84.6 694.7 84.6H721C743.7 84.6 753.9 94.8 754.9 115.1C755 117.5 753.8 118.8 751.5 118.8H738.6C736.3 118.8 735.1 117.5 735 115.2C734.1 106.9 730.3 103.7 721.1 103.7H695.1C684 103.7 680.1 106.3 680.1 114.8C680.1 123.3 683.8 124.7 693.5 125.4L725.6 127.8C747.5 129.5 756.7 137.1 756.7 156C756.7 174.9 747.4 186.1 722.2 186.1H693.9C671 186.1 661 175.9 660 155.6H659.7Z" fill="black"/>
<path d="M769.1 154.1V136.7C769.1 116.7 775.7 105.2 798.9 105.2H822.8C843.2 105.2 851.6 113.8 852.4 133.7C852.5 136.1 851.2 137.4 848.9 137.4H837.1C834.8 137.4 833.5 136.1 833.5 133.7C833.1 125.1 830.8 122.9 822.3 122.9H799.3C790.5 122.9 788.1 125.2 788.1 135V156.1C788.1 166 790.7 168.3 799.3 168.3H822.3C831.1 168.3 833.1 166 833.5 157.2C833.5 154.8 834.8 153.5 837.1 153.5H848.9C851.2 153.5 852.5 154.8 852.4 157.2C851.5 177.9 842.9 186 822.8 186H798.9C775.7 186 769.1 174.6 769.1 154.1Z" fill="black"/>
<path d="M861 163.2C861 146.8 867.2 140.8 886.7 138.8L916.9 135.8C920.4 135.4 921.5 133.6 921.5 130.6C921.5 124.7 918.9 123 911.4 123H871C868.7 123 867.4 121.7 867.4 119.4V108.9C867.4 106.6 868.7 105.3 871 105.3H911.8C932.5 105.3 940.4 112.6 940.4 129V182.5C940.4 184.8 939.1 186.1 936.8 186.1H925C922.7 186.1 921.4 184.8 921.4 182.5V175.7C917.7 182.6 911.9 186.1 899.4 186.1H891.1C871.8 186.1 860.9 179.5 860.9 163.2H861ZM908.8 169C918.3 169 921.6 165.8 921.6 156.6V149.7L890 152.9C882.4 153.6 880.2 155.8 880.2 161.4C880.2 167 883.9 169 891.1 169H908.8Z" fill="black"/>
<path d="M1036.5 137.2V182.5C1036.5 184.8 1035.2 186.1 1032.9 186.1H1021.1C1018.8 186.1 1017.5 184.8 1017.5 182.5V135.2C1017.5 125.3 1014.9 123 1006.3 123H986.2C978.4 123 975 125 975 135.2V182.5C975 184.8 973.7 186.1 971.4 186.1H959.6C957.3 186.1 956 184.8 956 182.5V108.9C956 106.6 957.3 105.3 959.6 105.3H971.4C973.7 105.3 975 106.6 975 108.9V114.7C978.4 108.7 984.8 105.4 995.8 105.4H1006.7C1029.7 105.4 1036.5 116.8 1036.5 137.3V137.2Z" fill="black"/>
</svg>
