<svg version="1.2" xmlns="http://www.w3.org/2000/svg" viewBox="0 0 1080 199" width="1080" height="199"><style>.a{fill:#fff}</style><path class="a" d="m304.8 121.3l13.3 18.9c1.4 1.9 0.5 3.3-1.8 3.3h-11.6c-1.4 0-2.6-0.5-3.3-1.8l-12.2-18.9h-27.5v17.9c0 1.8-1 2.8-2.8 2.8h-10c-1.8 0-2.8-1-2.8-2.8v-73.3c0-1.8 1-2.8 2.8-2.8h40.5c22.9 0 31.6 9.6 31.6 28.4v1.6c0 13.6-4.3 22.9-16.3 26.5zm0.7-28c0-11.6-5-13.8-17.2-13.8h-26.6v28.6h26.6c12 0 17.2-2 17.2-13.4z"/><path class="a" d="m339.7 118.8v-13.5c0-15.5 5.1-24.4 23.1-24.4h18.5c17.9 0 23.1 8.9 23.1 24.4v13.5c0 16-5.1 24.8-23.1 24.8h-18.5c-17.9 0-23.1-8.8-23.1-24.8zm41.3 11c6.7 0 8.7-1.8 8.7-9.4v-16.4c0-7.6-1.9-9.4-8.7-9.4h-17.9c-6.8 0-8.7 1.8-8.7 9.4v16.4c0 7.7 2 9.4 8.7 9.4z"/><path class="a" d="m483.4 143.5h-12.2c-1.4 0-2.6-0.5-3.5-1.6l-16-20.2-16 20.2c-0.9 1.2-2 1.6-3.5 1.6h-12.2c-2.3 0-3.1-1.6-1.6-3.5l24.4-29-22.5-26.9c-1.6-1.8-0.8-3.5 1.6-3.5h12.4c1.4 0 2.6 0.5 3.5 1.6l14.1 18.1 14.1-18.1c0.9-1.2 2-1.6 3.5-1.6h12.2c2.3 0 3.1 1.6 1.6 3.5l-22.5 26.9 24.2 29c1.6 1.8 0.8 3.5-1.6 3.5z"/><path class="a" d="m502.4 116.5v-24.4c0-16.7 7.9-27.3 26.5-27.3h24.9c18.5 0 26.5 10.5 26.5 27.3v0.3c0 1.8-1 2.8-2.8 2.8h-10c-1.8 0-2.8-0.8-2.8-1.9v-1.8c0-9.7-3.2-11.9-10.9-11.9h-24.9c-7.7 0-10.9 2.2-10.9 11.9v25.6c0 9.6 3.5 11.7 10.9 11.7h24.9c7.5 0 10.9-2.2 10.9-11.7v-2.2c0-1.8 1-2.8 2.8-2.8h10c1.8 0 2.8 0.8 2.8 2.2v2.3c0 16.6-7.9 27.1-26.5 27.1h-24.9c-18.5 0-26.5-10.5-26.5-27.1z"/><path class="a" d="m649.7 80.8h9.2c1.8 0 2.8 1 2.8 2.8v57.2c0 1.8-1 2.8-2.8 2.8h-9.2c-1.8 0-2.8-1-2.8-2.8v-4.5c-2.7 4.7-7.6 7.3-16.2 7.3h-8.1c-17.9 0-23.1-8.8-23.1-24.8v-35.2c0-1.8 1-2.8 2.8-2.8h9.2c1.8 0 2.8 1 2.8 2.8v36.7c0 7.8 2 9.4 8.7 9.4h15.3c6 0 8.7-1.4 8.7-9.4v-36.7c0-1.8 1-2.8 2.8-2.8z"/><path class="a" d="m682.8 140.8v-8.1c0-1.8 1-2.8 2.8-2.8h30.7c6.2 0 8.5-1.4 8.5-5.2 0-3.8-1.7-4.9-7.6-5.6l-17.2-1.9c-14-1.6-18.5-6.9-18.5-18.5 0-11.6 7.1-17.8 22.5-17.8h29.9c1.8 0 2.8 1 2.8 2.8v8.1c0 1.8-1 2.8-2.8 2.8h-29.6c-5.6 0-8.2 1.2-8.2 5.5 0 4.3 1.6 4.8 6.7 5.4l16.8 1.9c15.7 1.9 20 7.6 20 18.9 0 11.3-7 17.4-23.5 17.4h-30.6c-1.8 0-2.8-1-2.8-2.8z"/><path class="a" d="m760.9 119.9v-25.7h-4.7c-1.8 0-2.8-1-2.8-2.8v-7.7c0-1.8 1-2.8 2.8-2.8 7.8-0.1 9-1.2 9.2-13.1 0-2 1-3 2.8-3h4.6c1.8 0 2.8 1 2.8 2.8v13.3h22.8c1.8 0 2.8 1 2.8 2.8v7.7c0 1.8-1 2.8-2.8 2.8h-22.8v27.4c0 6.7 2.2 8.7 10.2 8.7h12.6c1.8 0 2.8 1 2.8 2.8v7.8c0 1.8-1 2.8-2.8 2.8h-12.6c-20.2 0-24.8-8.1-24.8-23.7z"/><path class="a" d="m816.6 118.8v-13.5c0-15.5 5.1-24.4 23.1-24.4h18.5c17.9 0 23.1 8.9 23.1 24.4v13.5c0 16-5.1 24.8-23.1 24.8h-18.5c-17.9 0-23.1-8.8-23.1-24.8zm41.4 11c6.7 0 8.7-1.8 8.7-9.4v-16.4c0-7.6-1.9-9.4-8.7-9.4h-17.9c-6.8 0-8.7 1.8-8.7 9.4v16.4c0 7.7 2 9.4 8.7 9.4z"/><path class="a" d="m953.2 58.8h9.2c1.8 0 2.8 1 2.8 2.8v79.2c0 1.8-1 2.8-2.8 2.8h-9.2c-1.8 0-2.8-1-2.8-2.8v-4.3c-2.7 4.7-7.6 7.1-16.2 7.1h-10.7c-17.9 0-23.1-8.9-23.1-24.4v-13.5c0-16 5.1-24.8 23.1-24.8h10.7c8.6 0 13.5 2.4 16.2 7.1v-26.4c0-1.8 1-2.8 2.8-2.8zm-2.8 61.7v-16.4c0-7.9-2.8-9.4-8.7-9.4h-17.9c-6.7 0-8.7 1.8-8.7 9.4v16.4c0 7.6 1.9 9.4 8.7 9.4h17.9c6 0 8.7-1.6 8.7-9.4z"/><path class="a" d="m995.7 162.8v-8.1c0-1.8 1-2.8 2.8-2.8h28.3c6.7 0 8.8-2.4 8.8-9.4v-10.3c-2.6 5-7.3 7.6-16.2 7.6h-10.1c-17.9 0-23.1-8.8-23.1-24.8v-31.2c0-1.8 1-2.8 2.8-2.8h9.2c1.8 0 2.8 1 2.8 2.8v32.9c0 7.8 2 9.4 8.6 9.4h17.3c5.9 0 8.7-1.4 8.7-9.4v-32.9c0-1.8 1-2.8 2.8-2.8h9.2c1.8 0 2.8 1 2.8 2.8v57.2c0 15.3-5.7 24.8-23.6 24.8h-28.3c-1.8 0-2.8-1-2.8-2.8z"/><path class="a" d="m186.3 61.3v77.4c0 0.9-0.5 1.7-1.2 2.2l-18.9 10.9-56.9 32.9c-0.4 0.3-0.9 0.3-1.3 0.3-0.4 0-0.9-0.1-1.3-0.3l-56.9-32.9-18.9-10.9c-0.8-0.5-1.2-1.2-1.2-2.2v-77.4c0-0.9 0.5-1.8 1.2-2.2l61.9-35.6c1.7-1 3.8 0.3 3.8 2.2v61.4c0 0.8-0.4 1.6-1 2.1l-25.4 17.9c-1.5 1-1.4 3.3 0.2 4.3l33.3 19.6h0.3c0 0.1 2.9 1.8 2.9 1.8 0.3 0.2 0.7 0.3 1.1 0.3 0.4 0 0.8-0.1 1.1-0.3l2.9-1.7h0.3c0-0.1 33.3-19.7 33.3-19.7 1.6-0.9 1.7-3.2 0.2-4.3l-25.4-17.9c-0.7-0.5-1-1.2-1-2.1v-61.4c0-2 2.2-3.1 3.8-2.2l62 35.6c0.8 0.5 1.2 1.3 1.2 2.2h-0.2z"/></svg>