<svg width="17" height="20" viewBox="0 0 17 20" fill="none" xmlns="http://www.w3.org/2000/svg">
<path d="M17 4.87805L16.935 4.8374L8.47968 0L4.21139 2.46342L0 4.86179V14.6667V14.7236L0.0650406 14.7642L8.52033 19.6016L12.7886 17.1382L17 14.7399V4.93496V4.87805ZM8.48781 18.187L7.04879 17.3577L6.01627 16.7561L1.28455 14.0163L1.25203 13.9512V8.93497V5.65041L1.28455 5.57724L8.5122 1.41464L9.95123 2.2439L10.9837 2.84553L15.7155 5.58537L15.748 5.65041V10.6667V13.9594L15.7155 14.0325L8.48781 18.1951V18.187Z" fill="white"/>
<path d="M2.33337 6.36585V11.7805H3.54476V6.98374L8.51224 4.1626L13.4472 6.99187V12.7805L8.51224 15.6098L4.3659 13.2358L3.78866 14.2764L8.51224 16.9756L14.6423 13.439V6.34146L8.48785 2.80487L2.33337 6.36585Z" fill="white"/>
<path d="M12.3658 11.1383V7.65045L8.51218 5.41467L4.65039 7.63419V12.1464L8.42275 14.3415H8.57722L11.5203 12.6098L10.9756 11.6992L8.48779 13.1464L5.68291 11.5366V8.24394L8.48779 6.63419L11.3171 8.23581V11.1383H12.3658Z" fill="white"/>
<path d="M8.09755 7.99188L6.626 8.79676L6.60974 10.9512L8.52031 12.0894L10.3984 10.9512L10.3821 8.79676L8.91056 7.99188V8.97562L9.47153 9.34148V10.4553C9.45527 10.5122 8.58535 11.0081 8.49592 11.0081C8.44714 11.0081 7.61787 10.5447 7.58535 10.5041C7.48779 10.3903 7.56909 9.55286 7.55283 9.34148L8.11381 8.97562V7.99188H8.09755Z" fill="white"/>
</svg>
