<svg width="16" height="16" viewBox="0 0 16 16" fill="none" xmlns="http://www.w3.org/2000/svg">
<rect width="16" height="16" rx="8" fill="#202020"/>
<path d="M13.9265 4.56806L13.8811 4.53972L7.98592 1.16699L5.00999 2.88453L2.07373 4.55672V11.3929V11.4326L2.11908 11.4609L8.01426 14.8336L10.9902 13.1161L13.9265 11.4439V4.60774V4.56806ZM7.99159 13.8473L6.98828 13.2691L6.26838 12.8497L2.96935 10.9394L2.94667 10.894V7.39662V5.10656L2.96935 5.05555L8.0086 2.1533L9.01191 2.73148L9.7318 3.15095L13.0308 5.06122L13.0535 5.10656V8.604V10.8997L13.0308 10.9507L7.99159 13.853V13.8473Z" fill="white"/>
<path d="M3.70068 5.60485V9.38004H4.54528V6.03565L8.0087 4.0687L11.4495 6.04132V10.0773L8.0087 12.0499L5.1178 10.3947L4.71534 11.1203L8.0087 13.0022L12.2827 10.5364V5.58785L7.9917 3.12207L3.70068 5.60485Z" fill="white"/>
<path d="M10.6953 8.93297V6.50121L8.00843 4.94238L5.31592 6.48987V9.63586L7.94608 11.1663H8.05378L10.1058 9.95896L9.72597 9.32409L7.99143 10.3331L6.03581 9.21072V6.915L7.99143 5.79265L9.96405 6.90933V8.93297H10.6953Z" fill="white"/>
<path d="M7.71945 6.73926L6.69347 7.30043L6.68213 8.80257L8.01421 9.59616L9.32363 8.80257L9.31229 7.30043L8.2863 6.73926V7.42514L8.67742 7.68022V8.4568C8.66609 8.49648 8.05956 8.84225 7.99721 8.84225C7.9632 8.84225 7.38502 8.51915 7.36234 8.49081C7.29432 8.41145 7.35101 7.8276 7.33967 7.68022L7.73079 7.42514V6.73926H7.71945Z" fill="white"/>
</svg>
