<svg width="50" height="48" viewBox="0 0 50 48" fill="none" xmlns="http://www.w3.org/2000/svg">
<path d="M38.2393 48H14.3189C14.033 48 13.7947 47.8348 13.6518 47.6224L10.2686 41.8171L0.0953008 24.4012C0.0238255 24.2832 0 24.1416 0 24C0 23.8584 0.0476506 23.7168 0.0953008 23.5988L10.2686 6.18289L13.6518 0.377581C13.7947 0.141593 14.033 0 14.3189 0H38.2393C38.5252 0 38.7873 0.165191 38.9064 0.377581L49.8898 19.3274C50.1995 19.8466 49.8183 20.4838 49.2227 20.4838H30.2341C29.9958 20.4838 29.7576 20.3658 29.5908 20.1534L24.0634 12.3894C23.7298 11.9174 23.0389 11.941 22.753 12.4602L16.7014 22.6785L16.6537 22.7729L16.1296 23.646C16.0581 23.7404 16.0343 23.8584 16.0343 23.9764C16.0343 24.0944 16.0819 24.2124 16.1296 24.3068L16.6537 25.1799L16.7014 25.2743L22.753 35.4926C23.0389 35.9646 23.7536 36.0118 24.0634 35.5634L29.5908 27.7994C29.7337 27.6106 29.972 27.469 30.2341 27.469H49.2227C49.8183 27.469 50.1995 28.1298 49.8898 28.6254L38.9064 47.5988C38.7634 47.8348 38.5014 47.9764 38.2393 47.9764V47.9292V48Z" fill="url(#paint0_linear_12950_44822)"/>
<defs>
<linearGradient id="paint0_linear_12950_44822" x1="25" y1="0" x2="25" y2="48" gradientUnits="userSpaceOnUse">
<stop stop-color="#BAADF8"/>
<stop offset="1" stop-color="#5B40DC"/>
</linearGradient>
</defs>
</svg>
