<svg width="210" height="242" viewBox="0 0 210 242" fill="none" xmlns="http://www.w3.org/2000/svg">
<path d="M209.1 60L208.3 59.5L104.3 0L51.8 30.3L0 59.8V180.4V181.1L0.799999 181.6L104.8 241.1L157.3 210.8L209.1 181.3V60.7V60ZM104.4 223.7L86.7 213.5L74 206.1L15.8 172.4L15.4 171.6V109.9V69.5L15.8 68.6L104.7 17.4L122.4 27.6L135.1 35L193.3 68.7L193.7 69.5V131.2V171.7L193.3 172.6L104.4 223.8V223.7Z" fill="white"/>
<path d="M28.7002 78.3V144.9H43.6002V85.9L104.7 51.2L165.4 86V157.2L104.7 192L53.7002 162.8L46.6002 175.6L104.7 208.8L180.1 165.3V78L104.4 34.5L28.7002 78.3Z" fill="white"/>
<path d="M152.1 137V94.1001L104.7 66.6001L57.2002 93.9001V149.4L103.6 176.4H105.5L141.7 155.1L135 143.9L104.4 161.7L69.9002 141.9V101.4L104.4 81.6001L139.2 101.3V137H152.1Z" fill="white"/>
<path d="M99.5998 98.3L81.4998 108.2L81.2998 134.7L104.8 148.7L127.9 134.7L127.7 108.2L109.6 98.3V110.4L116.5 114.9V128.6C116.3 129.3 105.6 135.4 104.5 135.4C103.9 135.4 93.6998 129.7 93.2998 129.2C92.0998 127.8 93.0998 117.5 92.8998 114.9L99.7998 110.4V98.3H99.5998Z" fill="white"/>
</svg>
